Coordinates
version=1
nRows=13
nColumns=40
inDegrees=yes

Units are S.I. units (second, meters, Newtons, ...)
If the header above contains a line with 'inDegrees', this indicates whether rotational values are in degrees (yes) or radians (no).

endheader
time	pelvis_tilt	pelvis_list	pelvis_rotation	pelvis_tx	pelvis_ty	pelvis_tz	hip_flexion_r	hip_adduction_r	hip_rotation_r	knee_angle_r	knee_angle_r_beta	ankle_angle_r	subtalar_angle_r	mtp_angle_r	hip_flexion_l	hip_adduction_l	hip_rotation_l	knee_angle_l	knee_angle_l_beta	ankle_angle_l	subtalar_angle_l	mtp_angle_l	lumbar_extension	lumbar_bending	lumbar_rotation	arm_flex_r	arm_add_r	arm_rot_r	elbow_flex_r	pro_sup_r	wrist_flex_r	wrist_dev_r	arm_flex_l	arm_add_l	arm_rot_l	elbow_flex_l	pro_sup_l	wrist_flex_l	wrist_dev_l
      2.50000000	      8.27588736	      2.38576738	      0.94039695	     -0.39531933	      0.80439003	     -0.75664732	     41.08028247	      3.68260685	     -0.92969698	     84.84557818	      1.48083469	     29.11576895	      0.00000000	      0.00000000	     61.97834115	      3.67965988	      4.47373199	     15.13399468	      0.26413804	     -8.20087835	      0.00000000	      0.00000000	    -46.20728438	      0.56052988	     -0.57273065	     89.91878491	    -10.78773457	     13.29994505	     52.33287314	     86.92710684	      0.00000000	      0.00000000	     89.93468817	     -7.44630298	     10.55450450	     51.65967728	     85.55974119	      0.00000000	      0.00000000
      2.50500000	      8.26359187	      2.48105112	      0.92056901	     -0.39516855	      0.80408792	     -0.75667190	     41.13077596	      3.64684419	     -0.80476545	     84.95505054	      1.48274535	     29.15242335	      0.00000000	      0.00000000	     62.02814173	      3.71918157	      4.18598225	     15.11928008	      0.26388122	     -8.28447379	      0.00000000	      0.00000000	    -46.21473812	      0.46651466	     -0.59998461	     89.91882919	    -10.84409689	     13.33076045	     52.38705523	     86.95318453	      0.00000000	      0.00000000	     89.93482053	     -7.34232195	     10.42191640	     51.63234643	     85.59515138	      0.00000000	      0.00000000
      2.51000000	      8.25744038	      2.48284322	      0.95350660	     -0.39502973	      0.80375817	     -0.75674106	     41.16242826	      3.66364907	     -0.78212825	     85.02611365	      1.48398563	     29.21063009	      0.00000000	      0.00000000	     62.07439576	      3.76355609	      4.21313130	     15.11811658	      0.26386091	     -8.25290078	      0.00000000	      0.00000000	    -46.21868806	      0.48253707	     -0.64773427	     89.91914633	    -10.79434404	     13.23787367	     52.35836213	     87.03212131	      0.00000000	      0.00000000	     89.93489024	     -7.35210571	     10.45108925	     51.67817064	     85.30697080	      0.00000000	      0.00000000
      2.51500000	      8.23563002	      2.47211936	      0.99267616	     -0.39491775	      0.80344262	     -0.75681782	     41.21249257	      3.69107575	     -0.76030332	     85.07791632	      1.48488976	     29.17239215	      0.00000000	      0.00000000	     62.12296105	      3.81144719	      4.31778371	     15.07862588	      0.26317167	     -8.20710421	      0.00000000	      0.00000000	    -46.21019049	      0.53046469	     -0.77770347	     89.91960953	    -10.53316292	     12.98806230	     52.22799067	     87.19511483	      0.00000000	      0.00000000	     89.93479688	     -7.50436936	     10.59412876	     51.77388832	     84.17867811	      0.00000000	      0.00000000
      2.52000000	      8.28346038	      2.57331593	      0.98768125	     -0.39472666	      0.80327532	     -0.75688450	     41.17574910	      3.62071051	     -0.67667415	     85.17747474	      1.48662738	     29.33147851	      0.00000000	      0.00000000	     62.11687803	      3.87800087	      4.08731916	     15.09785383	      0.26350726	     -8.15425059	      0.00000000	      0.00000000	    -46.28491500	      0.42275430	     -0.73543627	     89.91942929	    -10.79936496	     13.17021964	     52.38182517	     87.03167870	      0.00000000	      0.00000000	     89.93525571	     -7.26725947	     10.33692599	     51.71483909	     85.42333688	      0.00000000	      0.00000000
      2.52500000	      8.29884762	      2.57602363	      1.02912265	     -0.39459970	      0.80306803	     -0.75692640	     41.17937931	      3.63445529	     -0.66629581	     85.22587784	      1.48747218	     29.34028873	      0.00000000	      0.00000000	     62.09017491	      3.93592647	      4.24118056	     14.98558527	      0.26154780	     -8.18693913	      0.00000000	      0.00000000	    -46.31973342	      0.45008442	     -0.79013434	     89.91970465	    -10.74260722	     13.06550997	     52.40102000	     87.10054340	      0.00000000	      0.00000000	     89.93527894	     -7.25184794	     10.29134504	     51.74501655	     84.92884420	      0.00000000	      0.00000000
      2.53000000	      8.31153801	      2.63815129	      1.02635383	     -0.39445782	      0.80283857	     -0.75696766	     41.18530311	      3.62212768	     -0.57352180	     85.29810406	      1.48873276	     29.38805546	      0.00000000	      0.00000000	     62.11893256	      3.96964634	      4.08152506	     14.98117580	      0.26147084	     -8.19097440	      0.00000000	      0.00000000	    -46.35310791	      0.39054864	     -0.81339882	     89.91961951	    -10.78309870	     13.10186136	     52.42616056	     86.87274980	      0.00000000	      0.00000000	     89.93566276	     -7.23466549	     10.24929704	     51.79542621	     85.72618638	      0.00000000	      0.00000000
      2.53500000	      8.30303142	      2.65410347	      1.07089874	     -0.39428920	      0.80258040	     -0.75703542	     41.21687983	      3.60624681	     -0.57359871	     85.36660765	      1.48992837	     29.37642613	      0.00000000	      0.00000000	     62.14036989	      4.03227298	      4.18184568	     14.92880281	      0.26055676	     -8.22832712	      0.00000000	      0.00000000	    -46.35772426	      0.40908439	     -0.85558410	     89.91972347	    -10.74281327	     12.98260366	     52.41918567	     87.04649680	      0.00000000	      0.00000000	     89.93576252	     -7.23557779	     10.31631986	     51.83028217	     85.05702098	      0.00000000	      0.00000000
      2.54000000	      8.33075077	      2.71517033	      1.09628062	     -0.39413664	      0.80240004	     -0.75710007	     41.19681539	      3.57551225	     -0.51771472	     85.42664995	      1.49097631	     29.47310598	      0.00000000	      0.00000000	     62.13566983	      4.10051079	      4.09116780	     14.89534979	      0.25997290	     -8.25026100	      0.00000000	      0.00000000	    -46.40541294	      0.37289378	     -0.88208688	     89.91983027	    -10.82046611	     13.05327463	     52.47820425	     86.86874800	      0.00000000	      0.00000000	     89.93598101	     -7.17275057	     10.21771626	     51.84733407	     85.70621527	      0.00000000	      0.00000000
      2.54500000	      8.31849555	      2.70252980	      1.12766705	     -0.39398714	      0.80212649	     -0.75709994	     41.22369991	      3.60677182	     -0.51346277	     85.47876588	      1.49188591	     29.51046452	      0.00000000	      0.00000000	     62.17716645	      4.12097935	      4.10363021	     14.84422529	      0.25908061	     -8.31104264	      0.00000000	      0.00000000	    -46.40751811	      0.40076408	     -0.90420007	     89.92007192	    -10.77379060	     12.98782652	     52.45838160	     86.90889807	      0.00000000	      0.00000000	     89.93603276	     -7.18433535	     10.23841678	     51.89476591	     85.61717801	      0.00000000	      0.00000000
      2.55000000	      8.32745195	      2.76878436	      1.12718102	     -0.39381608	      0.80190418	     -0.75713923	     41.23579446	      3.55837361	     -0.46526542	     85.55611133	      1.49323584	     29.56123302	      0.00000000	      0.00000000	     62.19062475	      4.16068541	      4.00679306	     14.79142651	      0.25815909	     -8.37515907	      0.00000000	      0.00000000	    -46.43056454	      0.34242434	     -0.90502738	     89.91981548	    -10.84227555	     13.00267493	     52.47704709	     86.93171612	      0.00000000	      0.00000000	     89.93620223	     -7.10949323	     10.21922966	     51.89685102	     85.58809829	      0.00000000	      0.00000000
      2.55500000	      8.30947548	      2.80281906	      1.13877758	     -0.39368705	      0.80165340	     -0.75716647	     41.26990029	      3.55114509	     -0.41100480	     85.60716918	      1.49412697	     29.62585309	      0.00000000	      0.00000000	     62.22664624	      4.19617648	      4.02492675	     14.73490488	      0.25717261	     -8.36202612	      0.00000000	      0.00000000	    -46.42609901	      0.31968183	     -0.93243809	     89.91957179	    -10.82031461	     12.89392562	     52.47691440	     87.27604873	      0.00000000	      0.00000000	     89.93641611	     -7.10514701	     10.36817948	     51.93490915	     84.25261147	      0.00000000	      0.00000000
      2.56000000	      8.33592740	      2.78074066	      1.16939782	     -0.39352564	      0.80150084	     -0.75719281	     41.24688902	      3.56030440	     -0.44834230	     85.65795929	      1.49501342	     29.64996246	      0.00000000	      0.00000000	     62.21244847	      4.21622272	      4.11466733	     14.67184419	      0.25607199	     -8.38347651	      0.00000000	      0.00000000	    -46.46995903	      0.36181051	     -0.92782419	     89.91994614	    -10.81796820	     12.90838045	     52.46205844	     86.93912458	      0.00000000	      0.00000000	     89.93626693	     -7.07575578	     10.17835889	     51.93969630	     85.59288024	      0.00000000	      0.00000000
